<?xml version="1.0" encoding="UTF-8" standalone="no"?>
<svg width="262px" height="87px" viewBox="0 0 262 87" version="1.1" xmlns="http://www.w3.org/2000/svg" xmlns:xlink="http://www.w3.org/1999/xlink" xmlns:sketch="http://www.bohemiancoding.com/sketch/ns">
    <!-- Generator: Sketch 3.3.3 (12072) - http://www.bohemiancoding.com/sketch -->
    <title>New Logo</title>
    <desc>Created with Sketch.</desc>
    <defs></defs>
    <g id="Page-1" stroke="none" stroke-width="1" fill="none" fill-rule="evenodd" sketch:type="MSPage">
        <g id="New-Logo" sketch:type="MSArtboardGroup" transform="translate(-1069.000000, -367.000000)" fill="#000000">
            <g sketch:type="MSLayerGroup" transform="translate(1069.000000, 367.500000)">
                <path d="M14.4609451,52.6125054 C25.125795,52.1461988 68.5906331,53.6780946 92.5262226,53.5927926 C116.461812,53.5074906 133.919103,53.4934982 144.944508,53.7631765 C155.969913,54.0328548 158.952328,53.6500212 163.040369,54.2880771 C167.12841,54.926133 173.406287,58.3736283 179.459838,61.1063016 C185.51339,63.838975 196.472996,67.9050853 211.39852,67.9050854 C226.324043,67.9050856 242.6006,62.9661555 249.337142,58.6271162 C256.073684,54.288077 259.573623,51.9473064 260.92858,53.4709552 C262.283538,54.994604 262.050434,59.4434954 257.235353,65.2227586 C252.420272,71.0020218 233.910693,85.8620403 211.047851,85.8620396 C188.185008,85.862039 177.758522,75.5507885 172.557869,71.727937 C167.357216,67.9050856 166.305426,64.843414 159.551002,63.5334061 C152.796577,62.2233982 138.161675,63.4606273 128.400917,63.4606279 C118.64016,63.4606286 50.6712203,67.5832902 31.2598848,67.5626563 C11.8485493,67.5420224 9.04023971,64.6519213 5.94616546,63.4606276 C2.85209121,62.2693339 0.336223205,60.2987145 0.336223039,58.181511 C0.336222873,56.0643074 3.79609514,53.0788119 14.4609451,52.6125054 Z" id="Spoon" sketch:type="MSShapeGroup"></path>
                <path d="M164.286,23.742 C164.286,20.4766503 164.730329,17.4180143 165.619,14.566 C166.507671,11.7139857 167.819991,9.22367731 169.556,7.095 C171.292009,4.96632269 173.441321,3.2820062 176.004,2.042 C178.566679,0.8019938 181.521983,0.182 184.87,0.182 C188.342017,0.182 191.39032,0.79166057 194.015,2.011 C196.63968,3.23033943 198.830325,4.90432269 200.587,7.033 C202.343675,9.16167731 203.666329,11.662319 204.555,14.535 C205.443671,17.407681 205.888,20.4766503 205.888,23.742 C205.888,26.9660161 205.443671,29.9936525 204.555,32.825 C203.666329,35.6563475 202.354009,38.1363227 200.618,40.265 C198.881991,42.3936773 196.712013,44.0779938 194.108,45.318 C191.503987,46.5580062 188.486684,47.178 185.056,47.178 C181.625316,47.178 178.608013,46.5580062 176.004,45.318 C173.399987,44.0779938 171.230009,42.3936773 169.494,40.265 C167.757991,38.1363227 166.456004,35.6563475 165.588,32.825 C164.719996,29.9936525 164.286,26.9660161 164.286,23.742 L164.286,23.742 Z M185.118,43.582 C188.011348,43.582 190.501656,43.0343388 192.589,41.939 C194.676344,40.8436612 196.39166,39.3866758 197.735,37.568 C199.07834,35.7493242 200.07033,33.6413453 200.711,31.244 C201.35167,28.8466547 201.672,26.346013 201.672,23.742 C201.672,20.6419845 201.28967,17.8623456 200.525,15.403 C199.76033,12.9436544 198.654674,10.8460087 197.208,9.11 C195.761326,7.37399132 194.004677,6.05133788 191.938,5.142 C189.871323,4.23266212 187.556679,3.778 184.994,3.778 C182.141986,3.778 179.672344,4.33599442 177.585,5.452 C175.497656,6.56800558 173.78234,8.04565747 172.439,9.885 C171.09566,11.7243425 170.10367,13.8426547 169.463,16.24 C168.82233,18.6373453 168.502,21.137987 168.502,23.742 C168.502,26.3873466 168.82233,28.9086547 169.463,31.306 C170.10367,33.7033453 171.09566,35.8113242 172.439,37.63 C173.78234,39.4486758 175.497656,40.895328 177.585,41.97 C179.672344,43.044672 182.183319,43.582 185.118,43.582 L185.118,43.582 Z M218.474,7.064 L218.35,7.064 L218.35,46 L214.134,46 L214.134,1.36 L218.908,1.36 L244.7,40.358 L244.824,40.358 L244.824,1.36 L249.04,1.36 L249.04,46 L244.142,46 L218.474,7.064 Z" id="ON" sketch:type="MSShapeGroup"></path>
                <path d="M10.7226562,1.37695312 L20.1982422,1.37695312 L20.1982422,28.8046875 C20.1982422,31.8724112 20.5615198,34.1126231 21.2880859,35.5253906 C22.4182999,38.0280073 24.8805149,39.2792969 28.6748047,39.2792969 C32.4489121,39.2792969 34.901036,38.0280073 36.03125,35.5253906 C36.7578161,34.1126231 37.1210938,31.8724112 37.1210938,28.8046875 L37.1210938,1.37695312 L46.5966797,1.37695312 L46.5966797,28.8046875 C46.5966797,33.5475498 45.8600334,37.2408722 44.3867188,39.8847656 C41.6419134,44.7285398 36.404661,47.1503906 28.6748047,47.1503906 C20.9449483,47.1503906 15.697605,44.7285398 12.9326172,39.8847656 C11.4593025,37.2408722 10.7226562,33.5475498 10.7226562,28.8046875 L10.7226562,1.37695312 Z M55.3457031,1.37695312 L65.1240234,1.37695312 L82.8945312,32.5283203 L82.8945312,1.37695312 L91.5830078,1.37695312 L91.5830078,46 L82.2587891,46 L64.0341797,14.3037109 L64.0341797,46 L55.3457031,46 L55.3457031,1.37695312 Z M108.808594,46 L99.5449219,46 L99.5449219,1.37695312 L108.808594,1.37695312 L108.808594,46 Z M140.232422,38.9462891 C140.777346,38.8050123 141.473629,38.5527362 142.321289,38.1894531 L137.810547,33.890625 L142.624023,28.8652344 L147.134766,33.1640625 C147.841149,31.7109302 148.335611,30.4394586 148.618164,29.3496094 C149.062177,27.7148356 149.28418,25.8076281 149.28418,23.6279297 C149.28418,18.6226963 148.259939,14.7527806 146.211426,12.0180664 C144.162913,9.28335221 141.170918,7.91601562 137.235352,7.91601562 C133.541974,7.91601562 130.595389,9.22785146 128.395508,11.8515625 C126.195627,14.4752735 125.095703,18.40069 125.095703,23.6279297 C125.095703,29.7431946 126.669906,34.1227081 129.818359,36.7666016 C131.856781,38.4821049 134.298814,39.3398438 137.144531,39.3398438 C138.214198,39.3398438 139.243485,39.2086602 140.232422,38.9462891 L140.232422,38.9462891 Z M157.155273,32.9521484 C156.36816,35.5153123 155.20769,37.6445228 153.673828,39.3398438 L158.820312,44.1533203 L153.946289,49.2392578 L148.557617,44.1533203 C146.922843,45.1422575 145.510097,45.8385396 144.319336,46.2421875 C142.321279,46.9082065 139.929701,47.2412109 137.144531,47.2412109 C131.332002,47.2412109 126.528665,45.5055512 122.734375,42.0341797 C118.132789,37.8564244 115.832031,31.7210691 115.832031,23.6279297 C115.832031,15.4742431 118.193336,9.30861464 122.916016,5.13085938 C126.770853,1.72003503 131.564099,0.0146484375 137.295898,0.0146484375 C143.068063,0.0146484375 147.911764,1.82094548 151.827148,5.43359375 C156.348004,9.61134901 158.608398,15.454064 158.608398,22.9619141 C158.608398,26.9378454 158.124028,30.2678902 157.155273,32.9521484 L157.155273,32.9521484 Z" id="UNIQ" sketch:type="MSShapeGroup"></path>
            </g>
        </g>
    </g>
</svg>